<svg width="48" height="49" viewBox="0 0 48 49" fill="none" xmlns="http://www.w3.org/2000/svg">
<rect y="0.335938" width="48" height="48" rx="16" fill="#0C0507" fill-opacity="0.02"/>
<path d="M18.7557 25.1136C18.4053 25.1136 18.1046 24.9882 17.8537 24.7372C17.6027 24.4863 17.4773 24.1856 17.4773 23.8352C17.4773 23.4848 17.6027 23.1842 17.8537 22.9332C18.1046 22.6823 18.4053 22.5568 18.7557 22.5568C19.1061 22.5568 19.4067 22.6823 19.6577 22.9332C19.9086 23.1842 20.0341 23.4848 20.0341 23.8352C20.0341 24.0672 19.9749 24.2803 19.8565 24.4744C19.7429 24.6686 19.589 24.8248 19.3949 24.9432C19.2055 25.0568 18.9924 25.1136 18.7557 25.1136ZM24.2635 25.1136C23.9131 25.1136 23.6125 24.9882 23.3615 24.7372C23.1106 24.4863 22.9851 24.1856 22.9851 23.8352C22.9851 23.4848 23.1106 23.1842 23.3615 22.9332C23.6125 22.6823 23.9131 22.5568 24.2635 22.5568C24.6139 22.5568 24.9145 22.6823 25.1655 22.9332C25.4164 23.1842 25.5419 23.4848 25.5419 23.8352C25.5419 24.0672 25.4827 24.2803 25.3643 24.4744C25.2507 24.6686 25.0968 24.8248 24.9027 24.9432C24.7133 25.0568 24.5002 25.1136 24.2635 25.1136ZM29.7713 25.1136C29.4209 25.1136 29.1203 24.9882 28.8693 24.7372C28.6184 24.4863 28.4929 24.1856 28.4929 23.8352C28.4929 23.4848 28.6184 23.1842 28.8693 22.9332C29.1203 22.6823 29.4209 22.5568 29.7713 22.5568C30.1217 22.5568 30.4223 22.6823 30.6733 22.9332C30.9242 23.1842 31.0497 23.4848 31.0497 23.8352C31.0497 24.0672 30.9905 24.2803 30.8722 24.4744C30.7585 24.6686 30.6046 24.8248 30.4105 24.9432C30.2211 25.0568 30.008 25.1136 29.7713 25.1136Z" fill="black"/>
</svg>
